<svg viewBox="0 0 100 100" xmlns="http://www.w3.org/2000/svg" role="img" aria-label="SPEC"><circle cx="50" cy="50" r="44" fill="#1c1a19"></circle>
  <circle cx="50" cy="50" r="44" fill="none" stroke="#4f7a3f" stroke-width="7"></circle>
  <g stroke="#4f7a3f" stroke-linecap="round" stroke-width="2.6" opacity="0.85">
    <line x1="50" y1="14" x2="50" y2="9"></line>
    <line x1="86" y1="50" x2="91" y2="50"></line>
    <line x1="50" y1="86" x2="50" y2="91"></line>
    <line x1="14" y1="50" x2="9" y2="50"></line>
  </g>
  <g transform="translate(50 50) rotate(270)" fill="#f5ead8">
    <rect x="-8" y="-9" width="16" height="20" rx="8"></rect>
    <path d="M8 -9 Q 26 -8, 38 -1.6 A 4 4 0 0 1 38 4.6 Q 24 5.6, 8 5.6 Z"></path>
    <path d="M8 11 Q 26 10, 38 4.2 A 4 4 0 0 0 38 -2.2 Q 24 -2.8, 8 -3.4 Z" opacity="0.72"></path>
  </g>
  <circle cx="50" cy="14" r="3.6" fill="#4f7a3f"></circle>
</svg>